HIERARCHY
ROOT root
{
	OFFSET	0	13.1	24.9
	CHANNELS 6  Xposition Yposition Zposition Xrotation Yrotation Zrotation
	JOINT spine_1
	{
		OFFSET	0	9.99999	0
		CHANNELS 3  Xrotation Yrotation Zrotation
		JOINT spine_2
		{
			OFFSET	0	112	-10
			CHANNELS 3  Xrotation Yrotation Zrotation
			JOINT spine_3
			{
				OFFSET	0	206.5	19.3
				CHANNELS 3  Xrotation Yrotation Zrotation
				JOINT spine_4
				{
					OFFSET	0	110.4	14.6
					CHANNELS 3  Xrotation Yrotation Zrotation
					JOINT neck_1
					{
						OFFSET	0	71.8	-50.3
						CHANNELS 3  Xrotation Yrotation Zrotation
						JOINT neck_2
						{
							OFFSET	0	86.2	-25.8
							CHANNELS 3  Xrotation Yrotation Zrotation
							JOINT head_ee
							{
								OFFSET	0	179.8	-8.7
								CHANNELS 3  Xrotation Yrotation Zrotation
								End Site
								{
									OFFSET	1	0	0
								}
							}
						}
					}
					JOINT left_clavicle
					{
						OFFSET	-43.2	22.4	-70.8
						CHANNELS 3  Xrotation Yrotation Zrotation
						JOINT left_shoulder
						{
							OFFSET	-93.9	-5.79999	48.7
							CHANNELS 3  Xrotation Yrotation Zrotation
							JOINT left_elbow
							{
								OFFSET	-291.4	-30.8	15.2
								CHANNELS 3  Xrotation Yrotation Zrotation
								JOINT left_lowarm_twist
								{
									OFFSET	-110.7	-3.89999	13.6
									CHANNELS 3  Xrotation Yrotation Zrotation
									JOINT left_hand
									{
										OFFSET	-110.7	-3.89999	13.6
										CHANNELS 3  Xrotation Yrotation Zrotation
										JOINT left_ee
										{
											OFFSET	-80.8	-5.10001	12.1
											CHANNELS 3  Xrotation Yrotation Zrotation
											End Site
											{
												OFFSET	1	0	0
											}
										}
									}
								}
							}
						}
					}
					JOINT right_clavicle
					{
						OFFSET	43.2	22.4	-70.8
						CHANNELS 3  Xrotation Yrotation Zrotation
						JOINT right_shoulder
						{
							OFFSET	93.9	-5.79999	48.7
							CHANNELS 3  Xrotation Yrotation Zrotation
							JOINT right_elbow
							{
								OFFSET	291.4	-30.8	15.2
								CHANNELS 3  Xrotation Yrotation Zrotation
								JOINT right_lowarm_twist
								{
									OFFSET	110.7	-3.89999	13.6
									CHANNELS 3  Xrotation Yrotation Zrotation
									JOINT right_hand
									{
										OFFSET	110.7	-3.89999	13.6
										CHANNELS 3  Xrotation Yrotation Zrotation
										JOINT right_ee
										{
											OFFSET	80.8	-5.10001	12.1
											CHANNELS 3  Xrotation Yrotation Zrotation
											End Site
											{
												OFFSET	1	0	0
											}
										}
									}
								}
							}
						}
					}
				}
			}
		}
	}
	JOINT left_hip
	{
		OFFSET	-82.8	-127.5	0.300001
		CHANNELS 3  Xrotation Yrotation Zrotation
		JOINT left_knee
		{
			OFFSET	-28.2	-396.7	2.2
			CHANNELS 3  Xrotation Yrotation Zrotation
			JOINT left_ankle
			{
				OFFSET	-11.7	-411.3	35.4
				CHANNELS 3  Xrotation Yrotation Zrotation
				JOINT left_toes
				{
					OFFSET	0	-60	-88.6
					CHANNELS 3  Xrotation Yrotation Zrotation
					JOINT left_foot_ee
					{
						OFFSET	-22.5	-16.5	-42.2
						CHANNELS 3  Xrotation Yrotation Zrotation
						End Site
						{
							OFFSET	1	0	0
						}
					}
				}
			}
		}
	}
	JOINT right_hip
	{
		OFFSET	82.8	-127.5	0.300001
		CHANNELS 3  Xrotation Yrotation Zrotation
		JOINT right_knee
		{
			OFFSET	28.2	-396.7	2.2
			CHANNELS 3  Xrotation Yrotation Zrotation
			JOINT right_ankle
			{
				OFFSET	11.7	-411.3	35.4
				CHANNELS 3  Xrotation Yrotation Zrotation
				JOINT right_toes
				{
					OFFSET	0	-60	-88.6
					CHANNELS 3  Xrotation Yrotation Zrotation
					JOINT right_foot_ee
					{
						OFFSET	22.5	-16.5	-42.2
						CHANNELS 3  Xrotation Yrotation Zrotation
						End Site
						{
							OFFSET	1	0	0
						}
					}
				}
			}
		}
	}
}
MOTION
Frames: 11
Frame Time: 0.02
1011.14 755.408 -1362.22 11.7189 46.8276 10.3243 -2.30642 -0.829038 -6.04062 -2.28624 -0.443705 -6.08093 -2.21652 1.0803 -6.00092 -2.26672 0.120841 -6.09584 -5.81414 2.03023 2.32427 -5.79989 2.02816 2.72412 -0.0 0.0 -0.0 10.9681 -2.88826 21.8271 6.70969 -10.9806 46.9391 1.7237 -40.4896 0.63577 5.10761 0.15175 -0.634552 0.824482 -4.0456 3.84032 -0.0 0.0 -0.0 2.87193 6.0678 -5.08506 -18.6519 31.2378 -56.9671 0.692024 18.9222 -0.115323 -9.80098 0.446586 -1.16924 -0.679855 -13.2457 -1.17367 0.0 0.0 0.0 3.42108 7.43334 -22.3795 -11.5354 0.30047 1.74181 9.41518 9.31791 -1.34136 25.119 -0.0 -0.0 -0.0 0.0 -0.0 26.0418 48.6307 -30.9712 -11.5758 -0.300902 -1.748 -2.03759 -31.8334 -0.326274 8.4238 -0.0 -0.0 0.0 0.0 0.0 
1008.47 753.076 -1366.96 11.902 47.3479 10.3794 -2.44377 -0.869081 -6.09868 -2.42322 -0.479994 -6.14141 -2.34781 1.07401 -6.06607 -2.3991 0.104398 -6.15918 -6.72897 2.24576 2.41999 -6.7138 2.40736 2.86988 -0.0 0.0 -0.0 10.9756 -3.05229 21.8501 6.01348 -12.1589 47.3269 1.64185 -39.1192 0.583368 4.30388 0.131634 -0.533854 0.929522 -3.3228 4.85073 -0.0 0.0 -0.0 3.02382 8.53851 -5.19791 -17.8352 32.2948 -58.5421 0.582159 16.0869 -0.0822679 -8.96022 0.400485 -1.07207 -0.814792 -15.1677 -1.15432 0.0 0.0 0.0 4.63043 11.2511 -23.3513 -10.0424 0.281439 1.51352 10.5144 5.92025 -1.4927 25.077 -0.0 -0.0 -0.0 0.0 -0.0 25.2546 47.5693 -29.8934 -8.06114 -0.24701 -1.21147 -1.27909 -30.892 -0.203103 8.37005 -0.0 -0.0 0.0 0.0 0.0 
1006.46 753.732 -1368.55 10.9697 47.1492 10.9635 -2.55002 -0.861852 -6.13281 -2.52923 -0.47062 -6.175 -2.45376 1.10291 -6.09421 -2.50552 0.128524 -6.19151 -5.67189 1.76088 2.25884 -5.65834 1.57213 2.60784 -0.0 0.0 -0.0 10.9296 -2.99155 21.7489 5.7969 -12.5562 47.9165 1.60847 -38.5445 0.562434 2.65978 0.086091 -0.328784 1.17244 -3.29133 6.50561 -0.0 0.0 -0.0 2.56974 9.16235 -4.21077 -17.11 32.8322 -58.2715 0.671732 18.4053 -0.10883 -8.37739 0.369368 -1.00433 -0.73649 -13.1298 -0.768892 0.0 0.0 0.0 4.92668 13.8028 -23.2616 -7.99586 0.245697 1.20153 10.5607 3.37769 -1.50274 23.507 -0.0 -0.0 -0.0 0.0 -0.0 25.3683 46.8835 -29.5507 -6.86943 -0.221276 -1.0304 -0.563585 -29.2905 -0.0883746 7.99127 -0.0 -0.0 0.0 0.0 0.0 
1003.18 752.003 -1371.62 10.7209 47.4493 10.8616 -2.60619 -0.87632 -6.24563 -2.58464 -0.477922 -6.28851 -2.50621 1.13032 -6.20485 -2.55987 0.138225 -6.30506 -5.8062 1.93211 1.83546 -5.79734 2.20852 2.21193 -0.0 0.0 -0.0 11.0017 -3.0581 21.9065 5.17774 -12.5884 48.8477 1.56803 -37.8358 0.537436 1.70497 0.0569449 -0.210308 1.24945 -3.24457 7.04652 -0.0 0.0 -0.0 2.46321 10.2835 -3.89148 -16.4847 33.2663 -58.6042 0.698995 19.099 -0.117594 -8.05879 0.35265 -0.96717 -0.769177 -11.8395 -0.00848021 0.0 0.0 0.0 4.53929 16.0142 -22.9162 -6.47239 0.211866 0.9702 11.7965 1.52099 -1.67602 22.2984 -0.0 -0.0 -0.0 0.0 -0.0 25.5099 46.1621 -29.5981 -5.68478 -0.191966 -0.850971 -1.7328 -29.5206 -0.272777 7.5317 -0.0 -0.0 0.0 0.0 0.0 
1001.68 751.247 -1379.22 10.7084 48.8252 10.6102 -2.5655 -1.01591 -6.17097 -2.54455 -0.621955 -6.22283 -2.45114 0.967475 -6.17872 -2.50436 -0.0184961 -6.25368 -6.71436 1.67987 5.48159 -6.6288 -0.872128 5.82864 -0.0 0.0 -0.0 11.0258 -2.40826 21.9282 4.69046 -12.561 49.761 1.54654 -37.4535 0.52431 0.795244 0.0273403 -0.0978852 1.36834 -4.87017 7.17616 -0.0 0.0 -0.0 2.5424 9.87374 -4.092 -16.0565 33.4761 -58.4328 0.749425 20.3671 -0.134623 -7.30529 0.313939 -0.878921 -0.9467 -10.3409 1.77318 0.0 0.0 0.0 4.2786 18.2167 -22.9001 -4.92807 0.171303 0.73668 11.803 -0.549412 -1.68464 18.7098 -0.0 -0.0 -0.0 0.0 -0.0 25.3262 45.6041 -29.2852 -6.10306 -0.202738 -0.914257 -2.09256 -30.1417 -0.331039 7.31598 -0.0 -0.0 0.0 0.0 0.0 
997.672 749.587 -1379.25 10.2897 48.3793 10.8564 -2.58133 -0.847096 -6.22283 -2.55992 -0.450199 -6.26391 -2.48519 1.14875 -6.17446 -2.53831 0.161202 -6.27794 -6.18365 2.19652 2.54762 -6.16658 2.19141 2.98332 -0.0 0.0 -0.0 11.1273 -3.08518 22.1775 3.83001 -12.2331 50.9211 1.49998 -36.6117 0.496266 0.168879 0.00591975 -0.0207556 1.34218 -3.19409 7.69626 -0.0 0.0 -0.0 2.34616 11.6139 -3.52689 -15.3636 33.8125 -58.3957 0.746585 20.2962 -0.133636 -7.68077 0.333084 -0.922959 -0.790833 -9.5149 1.13541 0.0 0.0 0.0 4.53372 18.5766 -22.5719 -3.72204 0.135253 0.555106 13.0244 0.605727 -1.84512 20.0036 -0.0 -0.0 -0.0 0.0 -0.0 24.945 45.7383 -28.2235 -5.30109 -0.181677 -0.792986 -3.43307 -30.5502 -0.546019 6.95364 -0.0 -0.0 0.0 0.0 0.0 
993.969 752.381 -1386.7 11.1192 49.3567 9.10911 -2.92732 -0.794781 -5.90874 -2.90801 -0.417862 -5.94715 -2.83992 1.13602 -5.85291 -2.88763 0.199115 -5.95845 -5.83252 2.43805 3.26373 -5.80416 2.08667 3.74872 -0.0 0.0 -0.0 11.1085 -2.37818 22.1037 3.55238 -12.2664 51.6529 1.4767 -36.1837 0.48245 0.353672 0.012327 -0.0434868 1.06727 -3.78906 5.58717 -0.0 0.0 -0.0 2.34979 11.5737 -3.53818 -15.2664 33.9016 -58.6 0.755664 20.5225 -0.136802 -7.62715 0.330333 -0.916679 -0.780534 -8.59518 1.46858 0.0 0.0 0.0 3.71284 18.5681 -21.3689 -4.10976 0.14726 0.613397 12.0843 0.759296 -1.71766 15.1416 -0.0 -0.0 -0.0 0.0 -0.0 25.2799 45.4538 -27.9319 -6.05433 -0.201507 -0.90688 -6.53232 -31.1806 -1.04904 6.43317 -0.0 -0.0 0.0 0.0 0.0 
989.955 755.693 -1392.57 9.37937 51.0633 10.1141 -2.61581 -0.774722 -5.84706 -2.59689 -0.401748 -5.88434 -2.53302 1.10419 -5.79406 -2.57979 0.176929 -5.89534 -4.74973 1.67454 3.76615 -4.71041 0.227666 4.13079 -0.0 0.0 -0.0 11.4225 -2.96899 22.8086 2.45276 -11.6711 52.8836 1.41216 -34.9725 0.444901 -0.199236 -0.0070625 0.0244643 1.30625 -6.4175 6.10354 -0.0 0.0 -0.0 2.35549 11.6577 -3.54233 -15.1522 33.9132 -58.8735 0.781251 21.1568 -0.145905 -7.16188 0.306703 -0.862068 -0.850792 -7.30746 2.48544 0.0 0.0 0.0 4.36619 20.0781 -21.0911 -1.98739 0.0767125 0.295334 10.96 -1.38294 -1.57285 16.5031 -0.0 -0.0 -0.0 0.0 -0.0 23.4781 44.0246 -26.0468 -4.89133 -0.170261 -0.731138 -6.46959 -31.1394 -1.03856 6.25361 -0.0 -0.0 0.0 0.0 0.0 
980.778 754.283 -1398.77 9.2883 51.308 9.4854 -2.27397 -0.732473 -5.52824 -2.25706 -0.379769 -5.5635 -2.20146 1.01194 -5.4841 -2.24338 0.134531 -5.57479 -4.51385 1.06353 1.98554 -4.50312 0.443111 2.20959 -0.0 0.0 -0.0 11.3692 -2.61677 22.6757 0.96666 -10.9387 54.326 1.35984 -33.9635 0.415289 0.117969 0.00414169 -0.0144969 1.28666 -4.34906 6.83954 -0.0 0.0 -0.0 2.33166 9.8677 -3.65641 -15.2216 34.7321 -58.7464 0.814058 21.9621 -0.15796 -8.13631 0.356699 -0.976221 -0.996512 -8.5225 2.89546 0.0 0.0 0.0 3.97661 19.605 -20.5695 -3.53184 0.129219 0.526539 12.111 -1.17423 -1.7294 16.3174 -0.0 -0.0 -0.0 0.0 -0.0 23.8008 44.8359 -26.2608 -7.1909 -0.228589 -1.07919 -5.31894 -30.2005 -0.846641 6.1943 -0.0 -0.0 0.0 0.0 0.0 
977.735 754.486 -1405.72 8.69166 52.8937 9.60981 -2.24623 -0.7268 -5.47749 -2.22963 -0.377322 -5.51249 -2.17506 0.999097 -5.43455 -2.21622 0.12964 -5.52383 -5.20003 1.2603 3.26677 -5.17004 -0.128191 3.54388 -0.0 0.0 -0.0 11.3049 -1.46694 22.4743 0.339418 -10.3939 55.2969 1.31633 -33.1057 0.391253 -0.283582 -0.0100782 0.0348139 1.36618 -3.41314 7.76841 -0.0 0.0 -0.0 2.35922 9.25155 -3.76883 -15.4385 35.0819 -58.5174 0.805419 21.7509 -0.154744 -8.63613 0.383096 -1.03444 -0.945722 -8.27246 2.67738 0.0 0.0 0.0 4.02792 20.4788 -20.3122 -1.87733 0.0727331 0.278912 11.608 -4.11687 -1.67653 15.8973 -0.0 -0.0 -0.0 0.0 -0.0 24.577 44.4853 -26.2615 -8.04165 -0.246619 -1.2085 -7.82336 -30.4955 -1.25264 5.56418 -0.0 -0.0 0.0 0.0 0.0 
972.214 750.542 -1409.82 8.80097 54.0934 8.73547 -2.08897 -0.690584 -5.27867 -2.07355 -0.353774 -5.31179 -2.02445 0.9583 -5.2368 -2.06268 0.12044 -5.32216 -3.89062 1.16509 3.26821 -3.8603 -0.380771 3.55142 -0.0 0.0 -0.0 11.1846 -2.43784 22.2699 -0.806076 -9.93857 56.6169 1.28461 -32.4696 0.374076 -0.701477 -0.0252437 0.0860263 1.48115 -3.49562 8.51562 -0.0 0.0 -0.0 2.30567 8.47923 -3.72775 -15.7699 35.4308 -58.1685 0.857459 23.0136 -0.174561 -9.02075 0.403757 -1.07909 -1.13873 -8.32115 3.90536 0.0 0.0 0.0 3.62822 20.6 -19.9454 -1.88526 0.0730208 0.280095 11.5128 -2.74234 -1.65552 15.2728 -0.0 -0.0 -0.0 0.0 -0.0 25.7927 43.617 -26.3959 -12.6229 -0.310584 -1.90836 -6.17209 -30.0113 -0.982508 6.17379 -0.0 -0.0 0.0 0.0 0.0 
